<svg width="215" height="215" viewBox="0 0 215 215" fill="none" xmlns="http://www.w3.org/2000/svg">
<g clip-path="url(#clip0_9_24)">
<path d="M197.426 55.671C197.316 49.886 197.211 44.421 197.211 39.134C197.211 34.992 193.854 31.634 189.711 31.634C157.636 31.634 133.215 22.416 112.859 2.62401C109.947 -0.207994 105.313 -0.206994 102.402 2.62401C82.048 22.416 57.631 31.634 25.558 31.634C21.416 31.634 18.058 34.992 18.058 39.134C18.058 44.422 17.954 49.889 17.843 55.675C16.815 109.511 15.407 183.242 105.174 214.357C105.97 214.633 106.8 214.771 107.63 214.771C108.46 214.771 109.291 214.633 110.086 214.357C199.86 183.241 198.454 109.508 197.426 55.671ZM107.631 199.312C30.644 171.345 31.808 110.08 32.841 55.961C32.903 52.713 32.963 49.565 33.005 46.479C63.045 45.211 87.067 36.108 107.631 18.194C128.197 36.108 152.223 45.212 182.265 46.479C182.307 49.564 182.367 52.71 182.429 55.956C183.461 110.077 184.624 171.344 107.631 199.312Z" fill="white"/>
<path d="M133.458 81.582L97.259 117.779L81.812 102.332C78.883 99.404 74.134 99.404 71.206 102.332C68.277 105.262 68.277 110.01 71.206 112.939L91.956 133.689C93.42 135.153 95.34 135.885 97.259 135.885C99.178 135.885 101.098 135.153 102.562 133.689L144.063 92.189C146.993 89.26 146.993 84.511 144.064 81.583C141.136 78.654 136.387 78.653 133.458 81.582Z" fill="white"/>
</g>
<defs>
<clipPath id="clip0_9_24">
<rect width="214.27" height="214.27" fill="white" transform="translate(0.5 0.5)"/>
</clipPath>
</defs>
</svg>
