<svg width="9" height="9" viewBox="0 0 9 9" fill="none" xmlns="http://www.w3.org/2000/svg">
<g clip-path="url(#clip0_9_21)">
<path fill-rule="evenodd" clip-rule="evenodd" d="M4.74 0.765015C4.07437 0.765376 3.42022 0.935022 2.83738 1.25464C2.80623 1.27101 2.77865 1.29342 2.75625 1.32057C2.73385 1.34771 2.71708 1.37904 2.70692 1.41274C2.69676 1.44643 2.69341 1.48181 2.69707 1.51681C2.70073 1.55181 2.71133 1.58573 2.72823 1.6166C2.74514 1.64746 2.76803 1.67465 2.79556 1.69657C2.82309 1.71849 2.85471 1.73471 2.88857 1.74429C2.92244 1.75386 2.95787 1.75659 2.9928 1.75232C3.02773 1.74806 3.06147 1.73687 3.09203 1.71943C3.59763 1.44216 4.16427 1.29533 4.74 1.29502C6.64559 1.29401 8.185 2.83426 8.185 4.74001C8.185 6.64578 6.64576 8.18501 4.74 8.18501C2.83424 8.18501 1.29514 6.6458 1.295 4.74001C1.29496 4.1629 1.43938 3.59491 1.71579 3.08842C1.73441 3.05779 1.74662 3.0237 1.75169 2.98822C1.75675 2.95274 1.75457 2.91659 1.74526 2.88198C1.73596 2.84736 1.71973 2.81499 1.69756 2.78683C1.67538 2.75866 1.64773 2.73529 1.61626 2.71812C1.5848 2.70095 1.55018 2.69034 1.5145 2.68694C1.47881 2.68353 1.44281 2.6874 1.40867 2.69831C1.37452 2.70922 1.34294 2.72694 1.31585 2.7504C1.28875 2.77386 1.26669 2.80258 1.25101 2.83481C0.932043 3.41927 0.764952 4.07431 0.764999 4.74001C0.765156 6.93219 2.54781 8.71501 4.74 8.71501C6.93219 8.71501 8.715 6.93221 8.715 4.74001C8.715 2.54783 6.93236 0.763833 4.74 0.765015ZM4.73896 1.82398C3.13219 1.82398 1.82435 3.13428 1.82448 4.74105C1.82449 4.89568 1.95607 5.00501 2.1107 5.00501H2.62052C2.97394 5.00501 2.97394 4.47501 2.62052 4.47501H2.37001C2.42083 4.01443 2.60232 3.59446 2.8762 3.25146L3.05269 3.42847C3.3032 3.67898 3.67896 3.30322 3.42846 3.05271L3.25144 2.8757C3.59438 2.60161 4.01425 2.42057 4.475 2.37002V2.62053C4.46698 2.98179 5.01301 2.98179 5.005 2.62053V2.37002C5.46547 2.42092 5.8856 2.6021 6.22855 2.87622L6.05154 3.05271C5.80103 3.30322 6.1768 3.67898 6.4273 3.42847L6.6038 3.25146C6.87792 3.59442 7.05961 4.01454 7.11051 4.47501H6.85948C6.50606 4.47501 6.50606 5.00501 6.85948 5.00501H7.36826C7.52356 5.00501 7.65603 4.89635 7.65603 4.74105C7.6561 3.13428 6.34573 1.82398 4.73896 1.82398ZM2.12054 1.85193C2.08508 1.85132 2.04986 1.85783 2.01697 1.87107C1.98407 1.88432 1.95417 1.90403 1.92903 1.92905C1.87935 1.97874 1.85144 2.04614 1.85144 2.11641C1.85144 2.18668 1.87935 2.25408 1.92903 2.30377C1.95365 2.32845 1.98289 2.34803 2.01509 2.36139C2.04728 2.37475 2.0818 2.38163 2.11665 2.38163C2.15151 2.38163 2.18603 2.37475 2.21822 2.36139C2.25042 2.34803 2.27966 2.32845 2.30428 2.30377C2.35389 2.25401 2.38171 2.18658 2.38161 2.1163C2.38152 2.04603 2.35351 1.97868 2.30376 1.92905C2.25501 1.88054 2.1893 1.85289 2.12054 1.85193ZM4.73896 3.94501C4.30304 3.94501 3.945 4.30512 3.945 4.74105C3.945 5.17698 4.30304 5.53501 4.73896 5.53501C5.08207 5.53501 5.37575 5.31208 5.48635 5.00501H6.06552C6.41894 5.00501 6.41894 4.47501 6.06552 4.47501H5.48583C5.37476 4.1683 5.08144 3.94501 4.73896 3.94501ZM4.73896 4.47501C4.88846 4.47501 5.005 4.59156 5.005 4.74105C5.005 4.89055 4.88846 5.00501 4.73896 5.00501C4.58947 5.00501 4.475 4.89055 4.475 4.74105C4.475 4.59156 4.58947 4.47501 4.73896 4.47501ZM3.65412 6.06501C3.65395 6.06519 3.65378 6.06536 3.6536 6.06553C3.58442 6.07066 3.51999 6.10266 3.47412 6.1547C3.42824 6.20674 3.40456 6.27467 3.40814 6.34395C3.41173 6.41323 3.4423 6.47835 3.4933 6.52537C3.5443 6.57239 3.61169 6.59758 3.68103 6.59553H5.79948C5.83478 6.59632 5.86989 6.59006 5.90273 6.5771C5.93558 6.56413 5.9655 6.54474 5.99075 6.52005C6.01599 6.49537 6.03605 6.46589 6.04975 6.43334C6.06344 6.4008 6.0705 6.36584 6.0705 6.33053C6.0705 6.29522 6.06344 6.26027 6.04975 6.22772C6.03605 6.19518 6.01599 6.1657 5.99075 6.14101C5.9655 6.11632 5.93558 6.09693 5.90273 6.08397C5.86989 6.07101 5.83478 6.06474 5.79948 6.06553H3.68103C3.67208 6.0649 3.66309 6.06473 3.65412 6.06501ZM4.1836 7.12553C4.11438 7.1306 4.04989 7.16258 4.00397 7.21463C3.95804 7.26668 3.93433 7.33464 3.93792 7.40396C3.94151 7.47328 3.97211 7.53843 4.02316 7.58546C4.07421 7.63248 4.14166 7.65764 4.21103 7.65553H5.26896C5.33826 7.65404 5.4042 7.62546 5.45268 7.57593C5.50116 7.52639 5.5283 7.45984 5.5283 7.39053C5.5283 7.32122 5.50116 7.25467 5.45268 7.20514C5.4042 7.15561 5.33826 7.12703 5.26896 7.12553H4.21103C4.2019 7.12506 4.19274 7.12506 4.1836 7.12553Z" fill="white"/>
</g>
<defs>
<clipPath id="clip0_9_21">
<rect width="8.46667" height="8.46667" fill="white" transform="translate(0.5 0.5)"/>
</clipPath>
</defs>
</svg>
