<svg width="513" height="513" viewBox="0 0 513 513" fill="none" xmlns="http://www.w3.org/2000/svg">
<g clip-path="url(#clip0_9_2)">
<path d="M482.5 287.5C482.5 262.687 462.313 242.5 437.5 242.5H370.667C378.947 220.113 384.082 193.522 387.084 173.379C390.116 153.045 384.165 132.462 370.757 116.906C357.389 101.396 337.977 92.5 317.5 92.5C309.216 92.5 302.5 99.216 302.5 107.5C302.5 143.737 281.675 198.441 257.372 210.626C230.016 224.339 176.2 239.536 165.481 242.5C158.789 242.5 21.969 242.5 15.501 242.5C7.21698 242.5 0.500977 249.216 0.500977 257.5V467.5C0.499977 475.784 7.21598 482.5 15.5 482.5H60.5V497.5C60.5 505.784 67.216 512.5 75.5 512.5H137.5C155.821 512.5 171.608 501.489 178.622 485.742L283.862 512.052C285.052 512.349 286.274 512.5 287.5 512.5H377.5C402.313 512.5 422.5 492.313 422.5 467.5C422.5 461.648 421.377 456.054 419.336 450.921C438.424 445.711 452.5 428.218 452.5 407.5C452.5 401.648 451.377 396.054 449.336 390.921C468.424 385.711 482.5 368.218 482.5 347.5C482.5 335.985 478.153 325.467 471.014 317.5C478.153 309.533 482.5 299.015 482.5 287.5ZM60.499 452.5H30.499V272.5H60.499V452.5ZM152.499 467.5C152.499 475.771 145.77 482.5 137.499 482.5H90.499V272.5H152.499V467.5ZM347.5 332.5H437.5C445.771 332.5 452.5 339.229 452.5 347.5C452.5 355.771 445.771 362.5 437.5 362.5C426.19 362.5 356.744 362.5 347.5 362.5C339.216 362.5 332.5 369.216 332.5 377.5C332.5 385.784 339.216 392.5 347.5 392.5H407.5C415.771 392.5 422.5 399.229 422.5 407.5C422.5 415.771 415.771 422.5 407.5 422.5C401.141 422.5 353.859 422.5 347.5 422.5C339.216 422.5 332.5 429.216 332.5 437.5C332.5 445.784 339.216 452.5 347.5 452.5H377.5C385.771 452.5 392.5 459.229 392.5 467.5C392.5 475.771 385.771 482.5 377.5 482.5H289.347L182.5 455.789V268.876C202.738 263.065 245.665 250.054 270.816 237.445C305.266 220.174 326.361 165.546 331.351 124.951C337.732 127.285 343.492 131.223 348.035 136.493C355.739 145.43 359.157 157.262 357.413 168.955C350.308 216.609 341.395 236.17 334.084 250.791C331.759 255.441 332.007 260.963 334.74 265.385C337.473 269.807 342.301 272.5 347.5 272.5H437.5C445.771 272.5 452.5 279.229 452.5 287.5C452.5 295.771 445.771 302.5 437.5 302.5H347.5C339.216 302.5 332.5 309.216 332.5 317.5C332.5 325.784 339.216 332.5 347.5 332.5Z" fill="white"/>
<path d="M332.5 0.5C324.216 0.5 317.5 7.216 317.5 15.5V47.5C317.5 55.784 324.216 62.5 332.5 62.5C340.784 62.5 347.5 55.784 347.5 47.5V15.5C347.5 7.216 340.784 0.5 332.5 0.5Z" fill="white"/>
<path d="M247.647 76.434L226.434 55.221C220.577 49.363 211.079 49.363 205.221 55.221C199.363 61.079 199.363 70.576 205.221 76.434L226.434 97.647C232.291 103.505 241.79 103.505 247.647 97.647C253.505 91.789 253.505 82.292 247.647 76.434Z" fill="white"/>
<path d="M197.499 167.5H167.499C159.215 167.5 152.499 174.216 152.499 182.5C152.499 190.784 159.215 197.5 167.499 197.5H197.499C205.783 197.5 212.499 190.784 212.499 182.5C212.499 174.216 205.783 167.5 197.499 167.5Z" fill="white"/>
<path d="M497.5 167.5H467.5C459.216 167.5 452.5 174.216 452.5 182.5C452.5 190.784 459.216 197.5 467.5 197.5H497.5C505.784 197.5 512.5 190.784 512.5 182.5C512.5 174.216 505.784 167.5 497.5 167.5Z" fill="white"/>
<path d="M459.779 55.221C453.922 49.363 444.424 49.363 438.566 55.221L417.353 76.434C411.495 82.292 411.495 91.789 417.353 97.647C423.21 103.505 432.709 103.505 438.566 97.647L459.779 76.434C465.637 70.576 465.637 61.079 459.779 55.221Z" fill="white"/>
</g>
<defs>
<clipPath id="clip0_9_2">
<rect width="512" height="512" fill="white" transform="translate(0.5 0.5)"/>
</clipPath>
</defs>
</svg>
